<?xml version="1.0" standalone="no"?><!DOCTYPE svg PUBLIC "-//W3C//DTD SVG 1.1//EN" "http://www.w3.org/Graphics/SVG/1.1/DTD/svg11.dtd"><svg t="1553669735615" class="icon" style="" viewBox="0 0 1028 1024" version="1.1" xmlns="http://www.w3.org/2000/svg" p-id="2968" xmlns:xlink="http://www.w3.org/1999/xlink" width="200.78125" height="200"><defs><style type="text/css"></style></defs><path d="M396.147 336.825h-95.686v-46.416c0-0.007 0-0.016 0-0.025 0-8.019-6.501-14.521-14.519-14.521-3.552 0-6.807 1.276-9.33 3.394l-131.034 107.458c-3.347 2.683-5.471 6.771-5.471 11.356s2.124 8.672 5.443 11.334l130.588 101.789c2.438 1.917 5.551 3.075 8.937 3.075 8.010 0 14.505-6.485 14.521-14.491v-46.541h95.686c9.596 0 17.375-7.779 17.375-17.375 0 0 0 0 0 0v-81.538c0-0.043 0.001-0.095 0.001-0.146 0-9.291-7.292-16.878-16.465-17.351zM751.711 279.115c-2.501-2.1-5.756-3.376-9.308-3.376-8.019 0-14.519 6.501-14.519 14.521 0 0.009 0 0.017 0 0.026v46.538h-95.81c-9.596 0-17.375 7.779-17.375 17.375v81.538c0 9.596 7.779 17.375 17.375 17.375h95.686v46.54c0.016 8.007 6.511 14.493 14.521 14.493 3.383 0 6.498-1.158 8.967-3.099l130.528-101.743c3.347-2.683 5.471-6.771 5.471-11.356s-2.124-8.672-5.443-11.334z" p-id="2969"></path><path d="M905.851 0h-783.358c-67.651 0-122.493 54.842-122.493 122.493v515.413c0 67.651 54.842 122.493 122.493 122.493h349.235v103.629h-147.935c-0.011 0-0.023 0-0.036 0-25.817 0-48.119 15.043-58.621 36.842l-169.202 0.389c-23.404 0.004-42.375 18.977-42.375 42.382s18.971 42.379 42.375 42.382h168.661c10.671 22.188 32.974 37.232 58.79 37.232 0.013 0 0.025 0 0.038 0h380.631c0.011 0 0.023 0 0.036 0 25.817 0 48.119-15.043 58.621-36.842l168.829-0.389c23.404-0.004 42.375-18.977 42.375-42.382s-18.971-42.379-42.375-42.382h-168.288c-10.671-22.188-32.974-37.232-58.79-37.232-0.013 0-0.025 0-0.038 0h-147.933v-103.629h349.235c67.651 0 122.493-54.842 122.493-122.493v-515.413c0 0 0 0 0 0 0-67.607-54.771-122.422-122.362-122.493zM939.856 713.238c-13.708 0-24.821-11.113-24.821-24.821s11.113-24.821 24.821-24.821c13.708 0 24.821 11.113 24.821 24.821 0 13.708-11.113 24.821-24.821 24.821zM964.677 553.638c0 47.979-38.895 86.874-86.874 86.874h-727.262c-47.979 0-86.874-38.895-86.874-86.874v-400.615c0-47.979 38.895-86.874 86.874-86.874h727.262c0 0 0 0 0 0 47.979 0 86.874 38.895 86.874 86.874v400.615z" p-id="2970"></path></svg>