<?xml version="1.0" standalone="no"?><!DOCTYPE svg PUBLIC "-//W3C//DTD SVG 1.1//EN" "http://www.w3.org/Graphics/SVG/1.1/DTD/svg11.dtd"><svg t="1558503408238" class="icon" style="" viewBox="0 0 1272 1024" version="1.1" xmlns="http://www.w3.org/2000/svg" p-id="4875" xmlns:xlink="http://www.w3.org/1999/xlink" width="248.4375" height="200"><defs><style type="text/css"></style></defs><path d="M185.07736206 370.14453125A957.12890625 957.12890625 0 0 1 279.99923706 248.328125c-13.7109375-24.2578125-52.734375-83.84765625-23.203125-132.36328125s228.33984375-11.6015625 274.21875 11.07421875c280.546875-36.9140625 455.625 32.16796875 561.09375 220.4296875a349.62890625 349.62890625 0 0 1-25.3125 387.59765625 946.0546875 946.0546875 0 0 0-90.17578125 114.9609375c-14.765625 76.46484375-36.9140625 78.57421875-116.015625 81.2109375a145.546875 145.546875 0 0 1-114.9609375-39.55078125h-162.94921875c-30.05859375 32.16796875-65.91796875 35.859375-146.6015625 40.078125s-89.6484375-71.71875-89.6484375-114.9609375a527.34375 527.34375 0 0 1-163.4765625-189.84375A467.2265625 467.2265625 0 0 1 110.19454956 591.1015625c-26.89453125-18.984375-18.984375-52.734375-18.984375-141.85546875s93.8671875-79.1015625 93.8671875-79.1015625z m216.73828125 80.15625a46.93359375 46.93359375 0 1 0-47.98828125-47.4609375 46.93359375 46.93359375 0 0 0 47.98828125 47.4609375z" p-id="4876"></path></svg>