<?xml version="1.0" standalone="no"?><!DOCTYPE svg PUBLIC "-//W3C//DTD SVG 1.1//EN" "http://www.w3.org/Graphics/SVG/1.1/DTD/svg11.dtd"><svg t="1554198285421" class="icon" style="" viewBox="0 0 1170 1024" version="1.1" xmlns="http://www.w3.org/2000/svg" p-id="810" xmlns:xlink="http://www.w3.org/1999/xlink" width="228.515625" height="200"><defs><style type="text/css"></style></defs><path d="M1169.115429 636.489143c0-95.378286-127.268571-170.057143-283.355429-170.057143-10.386286 0-22.893714 0.365714-32.914286 1.024V189.147429c1.389714-7.094857 0.877714-14.189714 0.877715-21.504C853.723429 73.654857 735.232 0 579.218286 0 423.131429 0 300.909714 73.654857 300.909714 167.643429c0 7.314286 1.024 14.409143 2.413715 21.504v76.288a490.934857 490.934857 0 0 0-26.770286-0.731429c-156.086857 0-276.041143 73.581714-276.041143 167.497143 0 7.387429-1.243429 14.555429 0.146286 21.577143v389.851428h1.901714c4.900571 88.795429 123.318857 157.696 273.993143 157.696 150.528 0 276.48-68.754286 281.6-157.696h1.828571v-16.237714c8.923429 0.512 10.093714 1.316571 19.236572 1.316571 10.386286 0 20.553143-0.438857 30.646857-1.097142v4.608h2.048l-0.585143 10.605714c0 91.648 122.294857 171.446857 278.454857 171.446857 156.233143 0 278.528-72.850286 278.528-166.034286l-0.292571-10.605714h1.755428V658.358857c1.462857-7.168-0.658286-14.409143-0.658285-21.869714z m-279.332572-116.004572c137.289143 0 232.96 61.147429 232.96 116.004572 0 54.857143-95.670857 116.004571-232.96 116.004571S656.822857 691.346286 656.822857 636.489143c0-54.857143 95.670857-116.004571 232.96-116.004572z m235.52 211.090286v29.403429c-13.165714 58.733714-117.540571 107.885714-235.52 107.885714-117.906286 0-222.208-49.152-235.446857-107.812571v-29.476572c50.176 45.568 136.045714 75.044571 235.52 75.044572 99.401143 0 185.197714-29.476571 235.373714-75.044572zM579.145143 494.957714c-9.069714 0-10.386286-0.365714-19.236572-0.950857v-40.228571c0.950857-4.388571 1.536-8.777143 1.974858-13.165715 8.192 0.438857 8.777143 0.731429 17.261714 0.731429 98.889143 0 179.931429-29.696 228.205714-75.264v22.601143c-12.946286 57.856-111.981714 106.276571-228.205714 106.276571z m232.009143-22.528c-4.022857 0.731429-8.045714 1.243429-12.068572 2.048 4.096-3.291429 8.411429-6.509714 12.068572-9.947428v7.899428zM579.218286 53.394286c135.314286 0 225.718857 60.196571 225.718857 114.322285 0 54.052571-90.477714 114.249143-225.718857 114.249143-135.314286 0-229.595429-60.196571-229.595429-114.249143 0-54.125714 94.354286-114.322286 229.595429-114.322285zM347.209143 261.339429c4.169143 3.803429 8.996571 7.314286 13.677714 10.898285-4.388571-0.804571-9.142857-1.462857-13.677714-2.194285v-8.777143z m-70.656 56.612571c135.314286 0 233.325714 60.269714 233.325714 114.322286 0 54.125714-98.011429 114.322286-233.325714 114.322285-135.314286 0-229.595429-60.269714-229.595429-114.322285 0-54.125714 94.354286-114.322286 229.595429-114.322286zM44.544 525.897143c49.444571 44.836571 134.070857 73.874286 232.009143 73.874286 98.011429 0 186.368-29.037714 235.812571-73.874286v28.891428C499.419429 612.790857 392.777143 661.211429 276.48 661.211429 160.402286 661.211429 57.563429 612.790857 44.544 554.934857v-28.964571z m0 104.813714c48.274286 45.494857 133.12 75.264 232.009143 75.264s187.611429-29.769143 235.812571-75.337143v22.601143c-12.946286 57.929143-119.588571 106.276571-235.812571 106.276572-116.150857 0-218.989714-48.274286-232.009143-106.203429v-22.601143z m0 98.450286C92.818286 774.729143 177.664 804.571429 276.48 804.571429s187.611429-29.769143 235.812571-75.337143v22.601143c-12.946286 57.856-119.588571 106.276571-235.812571 106.276571-116.150857 0-218.989714-48.274286-232.009143-106.203429V729.234286z m232.009143 227.254857c-120.612571 0-226.523429-52.150857-232.813714-112.859429h0.731428v-15.945142c48.274286 45.494857 133.12 75.190857 232.082286 75.190857 98.889143 0 187.611429-29.696 235.812571-75.264v16.018285h0.731429c-6.217143 60.708571-116.004571 112.859429-236.544 112.859429z m279.186286-561.152c-9.216-25.453714-35.254857-48.566857-60.928-68.022857 26.624 4.973714 54.784 7.899429 84.406857 7.899428 98.011429 0 178.761143-29.037714 228.205714-73.874285v28.891428c-12.946286 57.856-111.981714 106.276571-228.205714 106.276572-10.532571 0-13.238857-0.438857-23.478857-1.170286z m54.125714 387.291429c-10.093714 0.731429-20.260571 1.243429-30.72 1.243428-8.996571 0-10.24-0.365714-19.163429-0.950857v-47.250286c8.777143 0.585143 10.166857 1.024 19.236572 1.024 10.459429 0 20.626286-0.585143 30.646857-1.316571v47.250286z m0-92.16c-10.093714 0.804571-20.260571 1.316571-30.72 1.316571-8.996571 0-10.24-0.365714-19.163429-0.950857v-53.613714c8.777143 0.585143 10.166857 1.024 19.236572 1.024 9.654857 0 19.090286-0.512 28.379428-1.097143 0.292571 6.217143 1.024 12.361143 2.267429 18.432v34.889143z m6.582857-98.816a409.234286 409.234286 0 0 1-37.302857 1.755428c-8.996571 0-10.24-0.438857-19.163429-1.024v-53.540571c8.777143 0.585143 10.166857 0.950857 19.236572 0.950857a456.411429 456.411429 0 0 0 84.845714-8.045714c-22.016 17.481143-38.4 37.741714-47.616 59.904z m273.334857 377.051428c-125.44 0-235.593143-55.588571-236.836571-119.222857l0.365714-11.849143h0.731429c48.786286 46.372571 135.168 76.726857 235.739428 76.726857 100.571429 0 186.953143-30.354286 235.812572-76.726857h0.731428l0.365714 10.825143c0 64.073143-110.665143 120.246857-236.909714 120.246857zM254.537143 467.163429a33.060571 33.060571 0 0 1-4.754286-14.628572h-33.060571c-0.292571 16.018286 6.582857 27.355429 20.553143 34.011429 7.899429 3.657143 19.968 6.217143 36.059428 7.460571v17.334857h11.849143v-17.554285c12.653714-0.658286 23.625143-2.998857 32.841143-7.094858 15.140571-6.582857 22.674286-17.188571 22.674286-31.817142 0-10.971429-5.485714-19.602286-16.457143-25.673143-6.656-3.657143-19.748571-7.899429-39.058286-12.653715v-33.060571c8.045714 0.365714 13.677714 2.633143 16.749714 6.729143a24.137143 24.137143 0 0 1 3.657143 11.337143h32.182857c-0.512-13.897143-7.606857-23.990857-21.357714-30.208a79.286857 79.286857 0 0 0-31.232-6.948572v-11.702857h-11.849143v11.556572c-8.338286 0.438857-14.628571 1.170286-19.017143 2.194285a52.809143 52.809143 0 0 0-19.382857 8.484572 35.181714 35.181714 0 0 0-10.459428 11.410285 29.257143 29.257143 0 0 0-3.657143 14.628572c0 8.192 3.145143 15.213714 9.508571 20.992 6.436571 5.851429 17.481143 10.313143 33.060572 13.604571l9.947428 2.048v37.083429c-9.362286-1.097143-15.579429-3.657143-18.797714-7.533714z m30.72-26.697143a61.44 61.44 0 0 1 14.336 5.193143c4.754286 2.925714 7.168 6.875429 7.168 11.849142 0 6.582857-2.56 11.190857-7.606857 13.897143a39.862857 39.862857 0 0 1-13.897143 3.072v-34.011428z m-25.161143-30.72c-5.12-2.779429-7.753143-6.582857-7.753143-11.483429 0-4.461714 1.755429-8.045714 5.12-10.605714 3.437714-2.56 8.777143-3.876571 15.872-4.022857v30.500571a52.809143 52.809143 0 0 1-13.238857-4.388571z m604.086857 252.562285a32.914286 32.914286 0 0 1-4.827428-14.628571h-33.060572c-0.219429 16.018286 6.582857 27.355429 20.553143 34.011429 7.972571 3.657143 19.968 6.217143 36.059429 7.460571v17.334857h11.922285v-17.554286c12.653714-0.658286 23.552-2.998857 32.768-7.021714 15.140571-6.582857 22.674286-17.261714 22.674286-31.890286 0-10.971429-5.485714-19.602286-16.457143-25.673142-6.656-3.657143-19.675429-7.899429-38.985143-12.653715v-33.060571c8.045714 0.365714 13.604571 2.633143 16.676572 6.729143a24.137143 24.137143 0 0 1 3.657143 11.337143h32.182857c-0.512-13.897143-7.606857-23.990857-21.357715-30.134858a79.213714 79.213714 0 0 0-31.158857-7.021714v-11.702857h-11.922285v11.556571c-8.338286 0.512-14.628571 1.170286-19.017143 2.194286a52.516571 52.516571 0 0 0-19.309715 8.484572 35.254857 35.254857 0 0 0-10.459428 11.410285 29.403429 29.403429 0 0 0-3.730286 14.628572c0 8.192 3.145143 15.213714 9.581714 20.992 6.436571 5.851429 17.408 10.313143 32.987429 13.604571l9.947429 2.048v37.156572c-9.289143-1.170286-15.579429-3.730286-18.724572-7.606858z m30.646857-26.697142a62.390857 62.390857 0 0 1 14.409143 5.193142c4.754286 2.925714 7.094857 6.875429 7.094857 11.849143 0 6.582857-2.486857 11.190857-7.606857 13.897143a40.082286 40.082286 0 0 1-13.897143 3.072V635.611429z m-25.161143-30.72c-5.12-2.779429-7.68-6.582857-7.68-11.483429a12.434286 12.434286 0 0 1 5.12-10.605714c3.437714-2.56 8.704-3.876571 15.798858-4.022857v30.500571a53.101714 53.101714 0 0 1-13.165715-4.388571zM555.227429 205.238857a33.060571 33.060571 0 0 1-4.754286-14.628571h-33.133714c-0.219429 16.018286 6.582857 27.355429 20.626285 34.011428 7.899429 3.657143 19.894857 6.217143 35.986286 7.460572v17.334857h11.922286V231.862857c12.653714-0.731429 23.552-3.072 32.768-7.094857 15.140571-6.582857 22.674286-17.261714 22.674285-31.817143 0-11.117714-5.485714-19.675429-16.457142-25.746286-6.582857-3.657143-19.675429-7.899429-38.985143-12.580571V121.417143c8.045714 0.365714 13.604571 2.633143 16.676571 6.802286 1.755429 2.340571 2.925714 6.144 3.657143 11.264h32.182857c-0.512-13.897143-7.606857-23.990857-21.357714-30.134858A79.140571 79.140571 0 0 0 585.874286 102.4v-11.702857h-11.922286v11.483428c-8.338286 0.512-14.628571 1.170286-19.017143 2.194286a52.516571 52.516571 0 0 0-19.309714 8.484572 35.108571 35.108571 0 0 0-10.459429 11.410285 29.257143 29.257143 0 0 0-3.730285 14.628572c0 8.265143 3.145143 15.213714 9.581714 20.992 6.436571 5.851429 17.408 10.313143 32.987428 13.604571l9.947429 2.048v37.156572c-9.289143-1.170286-15.579429-3.657143-18.724571-7.606858z m30.646857-26.697143a62.025143 62.025143 0 0 1 14.409143 5.266286c4.754286 2.925714 7.094857 6.802286 7.094857 11.776 0 6.582857-2.486857 11.190857-7.606857 13.897143a40.521143 40.521143 0 0 1-13.897143 3.072V178.468571z m-25.161143-30.72c-5.12-2.779429-7.68-6.582857-7.68-11.483428 0-4.461714 1.682286-8.045714 5.12-10.605715a27.062857 27.062857 0 0 1 15.798857-4.022857v30.500572a53.76 53.76 0 0 1-13.165714-4.388572z" fill="#1afa29" p-id="811"></path></svg>