<?xml version="1.0" standalone="no"?><!DOCTYPE svg PUBLIC "-//W3C//DTD SVG 1.1//EN" "http://www.w3.org/Graphics/SVG/1.1/DTD/svg11.dtd"><svg t="1553843974488" class="icon" style="" viewBox="0 0 1024 1024" version="1.1" xmlns="http://www.w3.org/2000/svg" p-id="3743" xmlns:xlink="http://www.w3.org/1999/xlink" width="200" height="200"><defs><style type="text/css"></style></defs><path d="M1000.68819741 92.5696c-1.71526371-2.81562112-8.15559111-12.36284075-23.2693248-16.18172814-19.09443925-4.8545189-43.98193778 1.74762667-72.6235978 19.22389333L51.27382926 547.21144149c-7.34650482 3.36579925-31.16600889 16.01991111-30.64819371 38.54487666 0.3883611 15.04900779 11.00357518 26.79694222 32.75181853 35.47034852l269.84650297 89.25841408 12.7835648-38.64196779-266.61015666-88.19041963L908.77598037 139.49661184 501.70842112 607.34274333c-8.22031815 8.86758741-80.77918777 88.22278371-87.67260445 141.65485112v200.16798038h40.77795556l-0.19418112-197.51417742c3.78652445-28.60929593 49.22481778-86.70170112 77.4457526-117.09098667L952.88737223 150.79145927l-128.7741952 662.96541184c-2.65380295 25.17876963-9.74140075 29.74201629-10.61521408 30.22746852-2.33016889 1.29453853-6.82868963-0.32363406-7.44359481-0.61490518a18.54426112 18.54426112 0 0 0-3.46288924-1.55344668l-272.56503296-90.42349739-12.78356594 38.64196665 271.10867741 89.9380463c3.91597853 1.9094437 12.52465778 5.21051705 22.94569073 5.21051704 6.37560149 0 13.65737927-1.26217443 20.90679296-5.04869888 18.09117184-9.38540259 28.99765703-30.32455851 32.16927631-60.35784704l138.67741297-713.19349816a21.13333703 21.13333703 0 0 0-2.36253297-14.01337629z m0 0" p-id="3744"></path></svg>