<?xml version="1.0" standalone="no"?><!DOCTYPE svg PUBLIC "-//W3C//DTD SVG 1.1//EN" "http://www.w3.org/Graphics/SVG/1.1/DTD/svg11.dtd"><svg t="1556157460164" class="icon" style="" viewBox="0 0 1024 1024" version="1.1" xmlns="http://www.w3.org/2000/svg" p-id="1981" xmlns:xlink="http://www.w3.org/1999/xlink" width="200" height="200"><defs><style type="text/css"></style></defs><path d="M913.018861 60.438949h-39.583843v60.039922a60.305586 60.305586 0 0 1-60.305585 60.305585H210.870567a60.305586 60.305586 0 0 1-60.305585-60.305585V60.438949H109.918486a79.699012 79.699012 0 0 0-79.699012 79.699011V943.238335a79.699012 79.699012 0 0 0 79.699012 79.699012h803.100375a79.699012 79.699012 0 0 0 79.699011-79.699012V141.200614a79.699012 79.699012 0 0 0-79.699011-80.761665zM470.689346 798.71746L276.223757 584.592782l5.578931-31.082614 188.886658 127.252755 304.981551-261.944085 29.754298 21.784396z" p-id="1982"></path><path d="M271.176153 120.478871h481.913357a60.305586 60.305586 0 0 0 0-120.345508H271.176153a60.305586 60.305586 0 1 0 0 120.345508z" p-id="1983"></path></svg>