<?xml version="1.0" standalone="no"?><!DOCTYPE svg PUBLIC "-//W3C//DTD SVG 1.1//EN" "http://www.w3.org/Graphics/SVG/1.1/DTD/svg11.dtd"><svg t="1554116273781" class="icon" style="" viewBox="0 0 1024 1024" version="1.1" xmlns="http://www.w3.org/2000/svg" p-id="2650" xmlns:xlink="http://www.w3.org/1999/xlink" width="200" height="200"><defs><style type="text/css"></style></defs><path d="M131.83 454.534c77.57-66.363 308.533-267.467 308.533-267.467s67.453-70.902 137.944 0L698.35 291.315v-56.863s45.341-77.22 105.303-4.213v154.794l114.778 98.986s38.959 44.226-5.266 85.29l-101.09 47.386-3.16 270.627s-6.315 48.436-43.172 53.702H327.689s-85.293 102.143-175.851 11.581c0 0-64.235-60.021-13.69-133.731l71.603-65.285-1.01-143.571-84.282-41.236c0 0.004-82.077-37.727 7.372-114.248zM250.879 716.38l88.455-87.399s-16.85-223.237 236.93-190.595l6.316 85.295 21.059 21.062 86.348 10.526s51.595 223.24-196.916 228.504L369.871 906.979h361.181s30.538-1.055 32.647-51.599l7.373-264.305 101.085-45.282s35.805-16.849 0-41.069l-306.424-276.94s-53.554-53.703-111.62 2.105l-286.42 254.83s-40.016 38.964 5.266 57.916l78.974 35.801-1.055 137.944zM537.79 514.801l-3.158-34.75c-182.172-6.317-146.366 167.433-146.366 167.433L188.19 847.554c-41.064 45.281 0 82.136 0 82.136 50.018 50.018 91.614 0 91.614 0l199.02-193.757c179.013 29.483 170.586-142.16 170.586-142.16l-29.482-6.317-67.392 61.077-73.711-77.923 58.965-55.809z m0 0" fill="" p-id="2651"></path></svg>