<?xml version="1.0" standalone="no"?><!DOCTYPE svg PUBLIC "-//W3C//DTD SVG 1.1//EN" "http://www.w3.org/Graphics/SVG/1.1/DTD/svg11.dtd"><svg t="1555132906382" class="icon" style="" viewBox="0 0 1024 1024" version="1.1" xmlns="http://www.w3.org/2000/svg" p-id="1977" xmlns:xlink="http://www.w3.org/1999/xlink" width="200" height="200"><defs><style type="text/css"></style></defs><path d="M866.304 593.92h-12.288l-63.488-135.168c108.544-92.16 120.832-256 28.672-364.544S563.2-26.624 454.656 65.536c-100.352 86.016-120.832 233.472-45.056 342.016l-182.272 249.856C131.072 634.88 36.864 694.272 14.336 790.528S51.2 980.992 147.456 1003.52s190.464-36.864 212.992-133.12c14.336-63.488-8.192-131.072-57.344-174.08l163.84-229.376c73.728 55.296 169.984 69.632 256 32.768l57.344 122.88c-65.536 49.152-79.872 141.312-30.72 206.848s141.312 79.872 206.848 30.72 79.872-141.312 30.72-206.848c-30.72-36.864-73.728-59.392-120.832-59.392z" p-id="1978"></path></svg>